<svg width="40" height="40" viewBox="0 0 40 40" fill="none" xmlns="http://www.w3.org/2000/svg">
    <rect width="40" height="40" fill="#C8342F"/>
    <path fill-rule="evenodd" clip-rule="evenodd"
          d="M11.5104 26.5H4V11H11.2292C12.9028 11 14.184 11.3336 15.0729 12.0007C15.9618 12.6678 16.4063 13.6649 16.4063 14.9921C16.4063 15.865 16.2014 16.5854 15.7917 17.1532C15.3819 17.7138 14.8611 18.1077 14.2292 18.3348V18.3774C15.0417 18.5619 15.7049 18.9594 16.2188 19.5697C16.7396 20.1801 17 21.014 17 22.0714C17 23.505 16.4931 24.6015 15.4792 25.3609C14.4722 26.1203 13.1493 26.5 11.5104 26.5ZM7.42708 19.591V24.0728H10.9271C11.7465 24.0728 12.375 23.8812 12.8125 23.4979C13.25 23.1147 13.4688 22.5469 13.4688 21.7946C13.4688 21.092 13.25 20.5491 12.8125 20.1659C12.375 19.7826 11.7465 19.591 10.9271 19.591H7.42708ZM7.42708 13.5017V17.5151H10.6771C11.4757 17.5151 12.066 17.3412 12.4479 16.9935C12.8299 16.6386 13.0208 16.1347 13.0208 15.4818C13.0208 14.8218 12.8299 14.3285 12.4479 14.0021C12.066 13.6685 11.4757 13.5017 10.6771 13.5017H7.42708ZM21.1627 26.5H18V11H22.628L26.3178 20.6236C26.4021 20.8578 26.4759 21.0814 26.5392 21.2943C26.6024 21.5072 26.6586 21.7308 26.7078 21.965H26.7605C26.8027 21.7308 26.8554 21.5072 26.9187 21.2943C26.9819 21.0814 27.0557 20.8578 27.1401 20.6236L30.8404 11H35.5V26.5L35.4998 26.5V28H35.5V30H4V28H32.0298V26.5L32.0316 26.5V16.9828C32.0316 16.7557 32.0351 16.5109 32.0422 16.2483C32.0492 15.9786 32.0633 15.7302 32.0843 15.5031H32.0211C31.9719 15.7302 31.9121 15.9786 31.8419 16.2483C31.7786 16.5109 31.7083 16.7557 31.631 16.9828L28.0783 26.5H25.116L21.5527 16.9935C21.4754 16.7593 21.4016 16.5038 21.3313 16.227C21.261 15.9431 21.2083 15.7018 21.1732 15.5031H21.1099C21.124 15.7018 21.1345 15.9431 21.1416 16.227C21.1556 16.5109 21.1627 16.7664 21.1627 16.9935V26.5Z"
          fill="white"/>
</svg>
