<svg width="80" height="80" viewBox="0 0 80 80" fill="none" xmlns="http://www.w3.org/2000/svg">
    <g clip-path="url(#clip0_313_4368)">
        <rect width="80" height="80" fill="white"/>
        <circle cx="40" cy="40" r="39" stroke="#C8342F" stroke-opacity="0.3" stroke-width="2"/>
        <g clip-path="url(#clip1_313_4368)">
            <path d="M63.0632 39.1762L59.0977 33.7945L59.1433 27.109C59.1477 26.5001 58.7544 25.9595 58.1738 25.7757L51.8004 23.7573L47.9131 18.3173C47.5582 17.8201 46.9209 17.6151 46.3431 17.8072L40.0003 19.9245L33.6575 17.8067C33.0792 17.6144 32.442 17.8195 32.0875 18.3167L28.2008 23.7562L21.8269 25.7757C21.2463 25.959 20.8531 26.5001 20.8574 27.1084L20.903 33.794L16.9374 39.1757C16.5769 39.6657 16.5769 40.334 16.9374 40.824L20.9029 46.2057L20.8573 52.8913C20.8529 53.5001 21.2462 54.0407 21.8268 54.2246L28.2002 56.2429L32.0874 61.683C32.3535 62.0552 32.7779 62.2647 33.2174 62.2647C33.3646 62.2647 33.5124 62.2413 33.6574 62.193L40.0002 60.0757L46.343 62.1936C46.9208 62.3864 47.5585 62.1802 47.913 61.6835L51.7997 56.244L58.1738 54.2247C58.7544 54.0413 59.1476 53.5002 59.1433 52.8919L59.0977 46.2058L63.0632 40.8241C63.4237 40.3346 63.4237 39.6658 63.0632 39.1762V39.1762ZM56.5871 44.9297C56.4093 45.1713 56.3143 45.4636 56.3165 45.7631L56.3582 51.8859L50.5192 53.7353C50.2325 53.8258 49.9831 54.007 49.8086 54.252L46.2497 59.2337L40.4402 57.2943C40.1547 57.1987 39.8458 57.1987 39.5603 57.2943L33.7508 59.2337L30.1913 54.2515C30.0168 54.007 29.7668 53.8254 29.4807 53.7342L23.6423 51.8853L23.6839 45.7625C23.6861 45.463 23.5911 45.1709 23.4134 44.9291L19.7808 40.0001L23.413 35.0707C23.5908 34.829 23.6858 34.5368 23.6836 34.2373L23.6419 28.1145L29.4809 26.265C29.7676 26.1745 30.017 25.9934 30.1914 25.7483L33.7503 20.7666L39.5598 22.7061C39.8453 22.8016 40.1543 22.8016 40.4398 22.7061L46.2493 20.7666L49.8088 25.7489C49.9833 25.9934 50.2332 26.175 50.5194 26.2661L56.3578 28.115L56.3161 34.2378C56.3139 34.5373 56.4089 34.8295 56.5867 35.0712L60.22 40.0001L56.5871 44.9297Z"
                  fill="#C8342F"/>
            <path d="M46.8312 33.8097L37.3968 43.2448L33.1706 39.0186C32.6279 38.4758 31.749 38.4758 31.2067 39.0186C30.6645 39.5614 30.6639 40.4402 31.2067 40.9825L36.4151 46.1909C36.6862 46.4621 37.0417 46.5976 37.3973 46.5976C37.7529 46.5976 38.1079 46.4621 38.3796 46.1909L48.7963 35.7742C49.339 35.2315 49.339 34.3526 48.7963 33.8103C48.2535 33.268 47.3735 33.2675 46.8312 33.8097V33.8097Z"
                  fill="#C8342F"/>
        </g>
    </g>
    <defs>
        <clipPath id="clip0_313_4368">
            <rect width="80" height="80" fill="white"/>
        </clipPath>
        <clipPath id="clip1_313_4368">
            <rect width="46.6667" height="46.6667" fill="white" transform="translate(16.667 16.667)"/>
        </clipPath>
    </defs>
</svg>
