<svg width="80" height="80" viewBox="0 0 80 80" fill="none" xmlns="http://www.w3.org/2000/svg">
    <g clip-path="url(#clip0_313_4380)">
        <rect width="80" height="80" fill="white"/>
        <circle cx="40" cy="40" r="39" stroke="#C8342F" stroke-opacity="0.3" stroke-width="2"/>
        <path d="M36.1663 50.0837C36.1663 50.9077 35.922 51.7133 35.4641 52.3985C35.0063 53.0837 34.3555 53.6178 33.5942 53.9332C32.8328 54.2485 31.9951 54.331 31.1868 54.1703C30.3785 54.0095 29.6361 53.6127 29.0534 53.0299C28.4707 52.4472 28.0738 51.7048 27.9131 50.8965C27.7523 50.0883 27.8348 49.2505 28.1502 48.4891C28.4655 47.7278 28.9996 47.077 29.6848 46.6192C30.37 46.1614 31.1756 45.917 31.9997 45.917C33.1047 45.917 34.1646 46.356 34.946 47.1374C35.7274 47.9188 36.1663 48.9786 36.1663 50.0837ZM52.833 45.917C52.0089 45.917 51.2033 46.1614 50.5181 46.6192C49.8329 47.077 49.2989 47.7278 48.9835 48.4891C48.6681 49.2505 48.5856 50.0883 48.7464 50.8965C48.9072 51.7048 49.304 52.4472 49.8867 53.0299C50.4695 53.6127 51.2119 54.0095 52.0201 54.1703C52.8284 54.331 53.6662 54.2485 54.4275 53.9332C55.1889 53.6178 55.8396 53.0837 56.2975 52.3985C56.7553 51.7133 56.9997 50.9077 56.9997 50.0837C56.9997 48.9786 56.5607 47.9188 55.7793 47.1374C54.9979 46.356 53.9381 45.917 52.833 45.917Z"
              stroke="#C8342F" stroke-width="3" stroke-linecap="round" stroke-linejoin="round"/>
        <path d="M46.583 27.1673V50.084H36.1663C36.1663 48.9789 35.7274 47.9191 34.946 47.1377C34.1645 46.3563 33.1047 45.9173 31.9997 45.9173C30.8946 45.9173 29.8348 46.3563 29.0534 47.1377C28.272 47.9191 27.833 48.9789 27.833 50.084H23.6663C23.1138 50.084 22.5839 49.8645 22.1932 49.4738C21.8025 49.0831 21.583 48.5532 21.583 48.0007V27.1673C21.583 26.6148 21.8025 26.0849 22.1932 25.6942C22.5839 25.3035 23.1138 25.084 23.6663 25.084H44.4997C45.0522 25.084 45.5821 25.3035 45.9728 25.6942C46.3635 26.0849 46.583 26.6148 46.583 27.1673ZM58.7288 37.0632L55.5413 32.2715C55.3507 31.982 55.0908 31.7446 54.7852 31.5809C54.4796 31.4172 54.138 31.3323 53.7913 31.334H46.583V50.084H48.6663C48.6663 48.9789 49.1053 47.9191 49.8867 47.1377C50.6681 46.3563 51.7279 45.9173 52.833 45.9173C53.9381 45.9173 54.9979 46.3563 55.7793 47.1377C56.5607 47.9191 56.9997 48.9789 56.9997 50.084H59.083V38.209C59.0798 37.8006 58.9567 37.4021 58.7288 37.0632Z"
              stroke="#C8342F" stroke-width="3" stroke-linecap="round" stroke-linejoin="round"/>
        <path d="M47.295 38.085H58.6874L59.0038 49.4774H57.1051C57.1051 49.4774 54.257 45.3634 52.6747 45.6799C51.0924 45.9964 48.5608 49.7938 48.5608 49.7938H46.9785L47.295 38.085Z"
              fill="#C8342F"/>
    </g>
    <defs>
        <clipPath id="clip0_313_4380">
            <rect width="80" height="80" fill="white"/>
        </clipPath>
    </defs>
</svg>
