<svg width="80" height="80" viewBox="0 0 80 80" fill="none" xmlns="http://www.w3.org/2000/svg">
<g clip-path="url(#clip0_313_4408)">
<rect width="80" height="80" fill="white"/>
<circle cx="40" cy="40" r="39" stroke="#C8342F" stroke-opacity="0.3" stroke-width="2"/>
<path d="M25.2224 54.7778V59M54.778 54.7778V59M48.4447 35.7778V40M31.5558 40V35.7778M25.2224 54.7778H54.778C55.3379 54.7778 55.8749 54.5554 56.2708 54.1595C56.6667 53.7635 56.8891 53.2266 56.8891 52.6667V23.1111C56.8891 22.5512 56.6667 22.0142 56.2708 21.6183C55.8749 21.2224 55.3379 21 54.778 21H25.2224C24.6625 21 24.1256 21.2224 23.7297 21.6183C23.3337 22.0142 23.1113 22.5512 23.1113 23.1111V52.6667C23.1113 53.2266 23.3337 53.7635 23.7297 54.1595C24.1256 54.5554 24.6625 54.7778 25.2224 54.7778ZM25.2224 54.7778H40.0002V21H25.2224C24.6625 21 24.1256 21.2224 23.7297 21.6183C23.3337 22.0142 23.1113 22.5512 23.1113 23.1111V52.6667C23.1113 53.2266 23.3337 53.7635 23.7297 54.1595C24.1256 54.5554 24.6625 54.7778 25.2224 54.7778Z" stroke="#C8342F" stroke-width="3" stroke-linecap="round" stroke-linejoin="round"/>
<rect x="23.5332" y="48.8672" width="32.9333" height="5.7" fill="#C8342F"/>
<path d="M36.834 52.0332H43.1673" stroke="white" stroke-width="2" stroke-linecap="round"/>
</g>
<defs>
<clipPath id="clip0_313_4408">
<rect width="80" height="80" fill="white"/>
</clipPath>
</defs>
</svg>
