<svg width="80" height="80" viewBox="0 0 80 80" fill="none" xmlns="http://www.w3.org/2000/svg">
    <g clip-path="url(#clip0_313_4431)">
        <rect width="80" height="80" fill="white"/>
        <circle cx="40" cy="40" r="39" stroke="#C8342F" stroke-opacity="0.3" stroke-width="2"/>
        <path d="M55.5767 56.6897L43.7301 44.8434C43.2861 44.3994 42.6279 44.3103 42.0913 44.5653L40.9146 43.3883C41.3866 42.8105 41.36 41.9626 40.821 41.4242C40.2468 40.8497 39.3162 40.8497 38.7424 41.4242L36.9819 43.184L30.0025 36.2055L30.0071 36.2006L30.1869 36.0208L28.8286 33.6868L25.4995 31.333L25.3194 31.5132L23.5128 33.3201L23.333 33.5003L25.6864 36.8297L28.0207 38.187L28.2005 38.0079L28.2048 38.0029L35.1839 44.9824L33.4238 46.7429C32.8496 47.3163 32.8492 48.2466 33.4238 48.8215C33.9625 49.3602 34.8108 49.3868 35.3878 48.9148L36.5652 50.0918C36.3102 50.6281 36.3992 51.2866 36.8432 51.7307L48.6898 63.577C49.2534 64.1406 50.1673 64.1406 50.7308 63.577L55.5771 58.7307C56.1406 58.1676 56.1406 57.2536 55.5767 56.6897Z"
              fill="#C8342F"/>
        <path d="M54.428 20.7241L50.6095 16.9057C50.4568 16.7528 50.2496 16.667 50.0334 16.667H44.6333C44.4171 16.667 44.2099 16.7528 44.0571 16.9057L40.2387 20.7241C40.0859 20.8769 40 21.0842 40 21.3002V26.7004C40 26.9165 40.0859 27.1238 40.2387 27.2765L44.0571 31.095C44.2099 31.2478 44.4172 31.3337 44.6333 31.3337H50.0334C50.2496 31.3337 50.4568 31.2478 50.6095 31.095L54.428 27.2765C54.5808 27.1238 54.6667 26.9165 54.6667 26.7004V21.3002C54.6667 21.0841 54.5808 20.8769 54.428 20.7241ZM50.5926 25.3504L48.6834 27.2596H45.9833L44.0741 25.3504V22.6503L45.9833 20.7411H48.6834L50.5926 22.6503V25.3504Z"
              fill="#C8342F"/>
    </g>
    <defs>
        <clipPath id="clip0_313_4431">
            <rect width="80" height="80" fill="white"/>
        </clipPath>
    </defs>
</svg>
