<svg width="80" height="80" viewBox="0 0 80 80" fill="none" xmlns="http://www.w3.org/2000/svg">
    <g clip-path="url(#clip0_313_4391)">
        <rect width="80" height="80" fill="white"/>
        <path d="M38.7949 46.911V50.6663H23.7765V47.4887L30.6944 40.3824C31.3054 39.6988 31.7981 39.0873 32.1726 38.5481C32.5471 37.9992 32.8181 37.5033 32.9856 37.0604C33.163 36.6174 33.2517 36.2178 33.2517 35.8616C33.2517 35.2549 33.1581 34.7494 32.9708 34.345C32.7935 33.9309 32.5274 33.618 32.1726 33.4061C31.8277 33.1943 31.399 33.0884 30.8866 33.0884C30.3742 33.0884 29.9258 33.2328 29.5414 33.5217C29.1571 33.8106 28.8565 34.2053 28.6397 34.7061C28.4328 35.2068 28.3293 35.7701 28.3293 36.396H23.333C23.333 35.1057 23.6533 33.9261 24.2938 32.8573C24.9442 31.7884 25.8459 30.9363 26.9989 30.3007C28.1519 29.6556 29.4872 29.333 31.0048 29.333C32.5914 29.333 33.9218 29.5737 34.996 30.0552C36.0701 30.5366 36.8782 31.2348 37.4202 32.1495C37.9721 33.0547 38.248 34.1476 38.248 35.4282C38.248 36.1601 38.1298 36.863 37.8932 37.537C37.6567 38.2111 37.3167 38.8803 36.8733 39.5447C36.4298 40.1995 35.8878 40.8735 35.2473 41.5668C34.6166 42.2601 33.8972 42.9967 33.0891 43.7767L30.3101 46.911H38.7949Z"
              fill="#C8342F"/>
        <path d="M56.6663 42.4479V46.2032H41.1748L40.8792 43.2278L49.5266 29.6363H53.4587L49.1867 36.4682L45.639 42.4479H56.6663ZM54.4934 29.6363V50.6663H49.5119V29.6363H54.4934Z"
              fill="#C8342F"/>
        <path d="M39.333 4.66699V11.3337" stroke="#C8342F" stroke-width="2"/>
        <path d="M39.333 68.667V75.3337" stroke="#C8342F" stroke-width="2"/>
        <path d="M68.667 40L75.3337 40" stroke="#C8342F" stroke-width="2"/>
        <path d="M4.66699 40L11.3337 40" stroke="#C8342F" stroke-width="2"/>
        <path d="M60.2705 19.7295L64.9846 15.0154" stroke="#C8342F" stroke-width="2"/>
        <path d="M15.0156 15.0156L19.7297 19.7297" stroke="#C8342F" stroke-width="2"/>
        <path d="M19.7305 59.333L15.0164 64.0471" stroke="#C8342F" stroke-width="2"/>
        <path d="M60 59.333L64.714 64.0471" stroke="#C8342F" stroke-width="2"/>
        <path fill-rule="evenodd" clip-rule="evenodd"
              d="M40 78C60.9868 78 78 60.9868 78 40C78 19.0132 60.9868 2 40 2C19.0132 2 2 19.0132 2 40C2 60.9868 19.0132 78 40 78ZM40 80C62.0914 80 80 62.0914 80 40C80 17.9086 62.0914 0 40 0C17.9086 0 0 17.9086 0 40C0 62.0914 17.9086 80 40 80Z"
              fill="#C8342F" fill-opacity="0.3"/>
    </g>
    <defs>
        <clipPath id="clip0_313_4391">
            <rect width="80" height="80" fill="white"/>
        </clipPath>
    </defs>
</svg>
