<svg width="80" height="80" viewBox="0 0 80 80" fill="none" xmlns="http://www.w3.org/2000/svg">
<g clip-path="url(#clip0_313_4419)">
<rect width="80" height="80" fill="white"/>
<path d="M51.7632 50.572C49.3284 53.9726 46.0095 56.6421 42.1659 58.2911L40.3326 59.0828L38.4993 58.2078C34.6557 56.5587 31.3368 53.8893 28.902 50.4887C26.4672 47.0881 25.0095 43.086 24.6868 38.9161L23.7909 27.4161C23.7771 26.9402 23.9266 26.4739 24.2147 26.0949C24.5028 25.7158 24.912 25.4469 25.3743 25.3328L40.3326 19.2217L55.2909 25.4161C55.7532 25.5302 56.1624 25.7991 56.4505 26.1782C56.7386 26.5573 56.8881 27.0236 56.8743 27.4995L56.5826 32.4163" stroke="#C8342F" stroke-width="3" stroke-linecap="round" stroke-linejoin="round"/>
<path d="M61.8263 39.7527V47.6768C61.8263 47.884 61.7074 48.0827 61.4958 48.2292C61.2841 48.3757 60.9971 48.458 60.6978 48.458H40.3853C40.086 48.458 39.799 48.3757 39.5874 48.2292C39.3757 48.0827 39.2568 47.884 39.2568 47.6768V39.7527H61.8263ZM61.8263 37.5205H39.2568V35.1768C39.2568 34.9696 39.3757 34.7708 39.5874 34.6243C39.799 34.4778 40.086 34.3955 40.3853 34.3955H60.6978C60.9971 34.3955 61.2841 34.4778 61.4958 34.6243C61.7074 34.7708 61.8263 34.9696 61.8263 35.1768V37.5205Z" fill="#C8342F"/>
<circle cx="40" cy="40" r="39" stroke="#C8342F" stroke-opacity="0.3" stroke-width="2"/>
</g>
<defs>
<clipPath id="clip0_313_4419">
<rect width="80" height="80" fill="white"/>
</clipPath>
</defs>
</svg>
