<?xml version="1.0" standalone="no"?>
<!DOCTYPE svg PUBLIC "-//W3C//DTD SVG 20010904//EN"
 "http://www.w3.org/TR/2001/REC-SVG-20010904/DTD/svg10.dtd">
<svg version="1.0" xmlns="http://www.w3.org/2000/svg"
 width="700.000000pt" height="700.000000pt" viewBox="0 0 700.000000 700.000000"
 preserveAspectRatio="xMidYMid meet">
<metadata>
Created by potrace 1.14, written by Peter Selinger 2001-2017
</metadata>
<g transform="translate(0.000000,700.000000) scale(0.100000,-0.100000)"
fill="#000000" stroke="none">
<path d="M0 3500 l0 -3500 3500 0 3500 0 0 3500 0 3500 -3500 0 -3500 0 0
-3500z m2205 1559 c262 -36 457 -140 564 -300 61 -92 92 -199 98 -344 6 -146
-10 -237 -63 -345 -49 -98 -151 -201 -248 -249 l-69 -34 54 -17 c95 -29 181
-81 255 -155 124 -122 174 -258 175 -472 0 -228 -55 -377 -191 -514 -119 -121
-267 -195 -480 -242 -90 -19 -133 -20 -847 -24 l-753 -4 0 1355 0 1356 714 0
c452 0 743 -4 791 -11z m1987 -589 c406 -1060 430 -1124 459 -1220 15 -52 29
-88 32 -80 3 8 16 53 29 100 13 47 172 471 353 943 l330 857 407 0 408 0 0
-1660 0 -1660 -2755 0 -2755 0 0 175 0 175 2455 0 2455 0 -1 1093 c-1 1177 2
1114 -49 922 -12 -44 -162 -456 -333 -915 l-312 -835 -260 0 -260 0 -318 847
c-196 523 -328 889 -345 957 -15 61 -29 111 -32 111 -3 0 -4 -432 -2 -960 l2
-960 -275 0 -275 0 0 1355 0 1355 407 -2 407 -3 228 -595z"/>
<path d="M1300 4286 l0 -356 268 0 c307 1 436 11 515 40 134 50 209 191 193
363 -13 141 -86 237 -214 279 -63 20 -90 22 -414 26 l-348 4 0 -356z"/>
<path d="M1300 3181 l0 -391 351 0 c391 0 445 6 540 63 107 64 163 176 163
327 0 187 -75 301 -240 363 -56 21 -75 22 -436 25 l-378 3 0 -390z"/>
</g>
</svg>
