<svg width="100" height="100" viewBox="0 0 100 100" fill="none" xmlns="http://www.w3.org/2000/svg">
<rect width="100" height="100" fill="#F2F2F2"/>
<path d="M34.08 47.57C34.18 46.8767 34.3733 46.27 34.66 45.75C34.9467 45.2233 35.3033 44.7867 35.73 44.44C36.1633 44.0867 36.6567 43.8233 37.21 43.65C37.77 43.47 38.37 43.38 39.01 43.38C39.6767 43.38 40.2767 43.4767 40.81 43.67C41.35 43.8567 41.81 44.12 42.19 44.46C42.57 44.7933 42.86 45.1867 43.06 45.64C43.2667 46.0933 43.37 46.5833 43.37 47.11C43.37 47.57 43.3167 47.9767 43.21 48.33C43.11 48.6767 42.9633 48.98 42.77 49.24C42.5767 49.5 42.3367 49.72 42.05 49.9C41.7633 50.08 41.44 50.23 41.08 50.35C41.9467 50.6233 42.5933 51.04 43.02 51.6C43.4467 52.16 43.66 52.8633 43.66 53.71C43.66 54.43 43.5267 55.0667 43.26 55.62C42.9933 56.1733 42.6333 56.64 42.18 57.02C41.7267 57.3933 41.2 57.6767 40.6 57.87C40.0067 58.0633 39.3767 58.16 38.71 58.16C37.9833 58.16 37.35 58.0767 36.81 57.91C36.27 57.7433 35.8 57.4967 35.4 57.17C35 56.8433 34.66 56.4433 34.38 55.97C34.1 55.4967 33.86 54.95 33.66 54.33L34.75 53.88C35.0367 53.76 35.3033 53.73 35.55 53.79C35.8033 53.8433 35.9867 53.9767 36.1 54.19C36.22 54.4233 36.35 54.6533 36.49 54.88C36.6367 55.1067 36.81 55.31 37.01 55.49C37.21 55.6633 37.4433 55.8067 37.71 55.92C37.9833 56.0267 38.3067 56.08 38.68 56.08C39.1 56.08 39.4667 56.0133 39.78 55.88C40.0933 55.74 40.3533 55.56 40.56 55.34C40.7733 55.12 40.93 54.8767 41.03 54.61C41.1367 54.3367 41.19 54.0633 41.19 53.79C41.19 53.4433 41.1533 53.13 41.08 52.85C41.0067 52.5633 40.8533 52.32 40.62 52.12C40.3867 51.92 40.05 51.7633 39.61 51.65C39.1767 51.5367 38.5933 51.48 37.86 51.48V49.72C38.4667 49.7133 38.97 49.6567 39.37 49.55C39.77 49.4433 40.0867 49.2967 40.32 49.11C40.56 48.9167 40.7267 48.6867 40.82 48.42C40.9133 48.1533 40.96 47.86 40.96 47.54C40.96 46.86 40.77 46.3433 40.39 45.99C40.01 45.6367 39.5033 45.46 38.87 45.46C38.5767 45.46 38.3067 45.5033 38.06 45.59C37.8133 45.67 37.59 45.7867 37.39 45.94C37.1967 46.0867 37.0333 46.26 36.9 46.46C36.7667 46.66 36.6667 46.88 36.6 47.12C36.4867 47.4267 36.3367 47.63 36.15 47.73C35.97 47.83 35.7133 47.8533 35.38 47.8L34.08 47.57ZM49.8216 48.79L49.3216 49.41C49.6016 49.27 49.9016 49.1633 50.2216 49.09C50.5482 49.01 50.8982 48.97 51.2716 48.97C51.8182 48.97 52.3482 49.06 52.8616 49.24C53.3816 49.42 53.8382 49.6933 54.2316 50.06C54.6249 50.42 54.9416 50.87 55.1816 51.41C55.4216 51.95 55.5416 52.58 55.5416 53.3C55.5416 53.9733 55.4182 54.6067 55.1716 55.2C54.9249 55.7867 54.5782 56.3 54.1316 56.74C53.6849 57.18 53.1449 57.5267 52.5116 57.78C51.8849 58.0333 51.1916 58.16 50.4316 58.16C49.6582 58.16 48.9649 58.0367 48.3516 57.79C47.7382 57.5433 47.2149 57.2 46.7816 56.76C46.3482 56.3133 46.0149 55.78 45.7816 55.16C45.5549 54.5333 45.4416 53.84 45.4416 53.08C45.4416 52.4 45.5782 51.7033 45.8516 50.99C46.1316 50.27 46.5616 49.5233 47.1416 48.75L50.5916 44.12C50.7116 43.96 50.8849 43.8233 51.1116 43.71C51.3449 43.5967 51.6116 43.54 51.9116 43.54H54.1116L49.8216 48.79ZM50.3816 56.14C50.7749 56.14 51.1349 56.0733 51.4616 55.94C51.7949 55.8067 52.0782 55.62 52.3116 55.38C52.5516 55.14 52.7382 54.86 52.8716 54.54C53.0049 54.2133 53.0716 53.86 53.0716 53.48C53.0716 53.0667 53.0082 52.6967 52.8816 52.37C52.7549 52.0367 52.5749 51.7567 52.3416 51.53C52.1082 51.2967 51.8282 51.12 51.5016 51C51.1749 50.88 50.8149 50.82 50.4216 50.82C50.0282 50.82 49.6716 50.8867 49.3516 51.02C49.0316 51.1533 48.7582 51.34 48.5316 51.58C48.3049 51.8133 48.1282 52.0933 48.0016 52.42C47.8749 52.74 47.8116 53.0867 47.8116 53.46C47.8116 53.86 47.8649 54.2267 47.9716 54.56C48.0849 54.8867 48.2482 55.1667 48.4616 55.4C48.6816 55.6333 48.9516 55.8167 49.2716 55.95C49.5916 56.0767 49.9616 56.14 50.3816 56.14ZM67.3031 50.77C67.3031 52.03 67.1665 53.1267 66.8931 54.06C66.6265 54.9867 66.2531 55.7533 65.7731 56.36C65.2998 56.9667 64.7365 57.42 64.0831 57.72C63.4365 58.0133 62.7365 58.16 61.9831 58.16C61.2298 58.16 60.5298 58.0133 59.8831 57.72C59.2431 57.42 58.6865 56.9667 58.2131 56.36C57.7398 55.7533 57.3698 54.9867 57.1031 54.06C56.8365 53.1267 56.7031 52.03 56.7031 50.77C56.7031 49.5033 56.8365 48.4067 57.1031 47.48C57.3698 46.5533 57.7398 45.7867 58.2131 45.18C58.6865 44.5733 59.2431 44.1233 59.8831 43.83C60.5298 43.53 61.2298 43.38 61.9831 43.38C62.7365 43.38 63.4365 43.53 64.0831 43.83C64.7365 44.1233 65.2998 44.5733 65.7731 45.18C66.2531 45.7867 66.6265 46.5533 66.8931 47.48C67.1665 48.4067 67.3031 49.5033 67.3031 50.77ZM64.7531 50.77C64.7531 49.7233 64.6765 48.8567 64.5231 48.17C64.3698 47.4833 64.1631 46.9367 63.9031 46.53C63.6498 46.1233 63.3565 45.84 63.0231 45.68C62.6898 45.5133 62.3431 45.43 61.9831 45.43C61.6298 45.43 61.2865 45.5133 60.9531 45.68C60.6265 45.84 60.3365 46.1233 60.0831 46.53C59.8298 46.9367 59.6265 47.4833 59.4731 48.17C59.3265 48.8567 59.2531 49.7233 59.2531 50.77C59.2531 51.8167 59.3265 52.6833 59.4731 53.37C59.6265 54.0567 59.8298 54.6033 60.0831 55.01C60.3365 55.4167 60.6265 55.7033 60.9531 55.87C61.2865 56.03 61.6298 56.11 61.9831 56.11C62.3431 56.11 62.6898 56.03 63.0231 55.87C63.3565 55.7033 63.6498 55.4167 63.9031 55.01C64.1631 54.6033 64.3698 54.0567 64.5231 53.37C64.6765 52.6833 64.7531 51.8167 64.7531 50.77Z" fill="black" fill-opacity="0.7"/>
<path fill-rule="evenodd" clip-rule="evenodd" d="M78.4282 58.4047L76 58L80.5 50L82 59L79.4766 58.5794C79.0947 60.5968 78.5059 62.5745 77.7164 64.4805C76.2087 68.1203 73.999 71.4274 71.2132 74.2132C68.4274 76.999 65.1203 79.2087 61.4805 80.7164C57.8407 82.224 53.9397 83 50 83V81.9374C53.8001 81.9374 57.563 81.1889 61.0739 79.7347C64.5847 78.2804 67.7747 76.1489 70.4618 73.4618C73.1489 70.7747 75.2804 67.5847 76.7347 64.0739C77.4932 62.2426 78.0598 60.3427 78.4282 58.4047Z" fill="black" fill-opacity="0.7"/>
<path fill-rule="evenodd" clip-rule="evenodd" d="M21.5718 41.5953L24 42L19.5 50L18 41L20.5234 41.4206C20.9053 39.4032 21.4941 37.4255 22.2836 35.5195C23.7913 31.8797 26.001 28.5726 28.7868 25.7868C31.5726 23.001 34.8797 20.7913 38.5195 19.2836C42.1593 17.776 46.0603 17 50 17L50 18.0626C46.1999 18.0626 42.437 18.8111 38.9261 20.2653C35.4153 21.7196 32.2253 23.8511 29.5382 26.5382C26.8511 29.2253 24.7196 32.4153 23.2653 35.9261C22.5068 37.7574 21.9402 39.6573 21.5718 41.5953Z" fill="black" fill-opacity="0.7"/>
</svg>
