<svg width="32" height="32" viewBox="0 0 32 32" fill="none" xmlns="http://www.w3.org/2000/svg">
    <rect width="32" height="32" rx="16" fill="#C8342F" fill-opacity="0.1"/>
    <g clip-path="url(#clip0_311_7884)">
        <path d="M22 18.9467V21.304C22.0001 21.4728 21.9361 21.6353 21.8211 21.7588C21.706 21.8823 21.5484 21.9575 21.38 21.9693C21.0887 21.9893 20.8507 22 20.6667 22C14.7753 22 10 17.2247 10 11.3333C10 11.1493 10.01 10.9113 10.0307 10.62C10.0425 10.4516 10.1177 10.294 10.2412 10.1789C10.3647 10.0639 10.5272 9.99992 10.696 10H13.0533C13.136 9.99992 13.2158 10.0306 13.2772 10.086C13.3385 10.1415 13.3771 10.2177 13.3853 10.3C13.4007 10.4533 13.4147 10.5753 13.428 10.668C13.5605 11.5926 13.832 12.4919 14.2333 13.3353C14.2967 13.4687 14.2553 13.628 14.1353 13.7133L12.6967 14.7413C13.5763 16.791 15.2097 18.4244 17.2593 19.304L18.286 17.868C18.328 17.8093 18.3892 17.7673 18.459 17.7491C18.5288 17.7309 18.6028 17.7379 18.668 17.7687C19.5113 18.1692 20.4104 18.4401 21.3347 18.572C21.4273 18.5853 21.5493 18.6 21.7013 18.6147C21.7835 18.6231 21.8596 18.6617 21.9149 18.7231C21.9702 18.7844 22.0008 18.8641 22.0007 18.9467H22Z"
              fill="#C8342F"/>
    </g>
    <defs>
        <clipPath id="clip0_311_7884">
            <rect width="16" height="16" fill="white" transform="translate(8 8)"/>
        </clipPath>
    </defs>
</svg>
