<svg width="60" height="60" viewBox="0 0 60 60" fill="none" xmlns="http://www.w3.org/2000/svg">
    <path d="M30 60C13.431 60 0 46.569 0 30C0 13.431 13.431 0 30 0C46.569 0 60 13.431 60 30C60 46.569 46.569 60 30 60ZM25.866 19.245C25.6854 19.1245 25.4756 19.0553 25.2588 19.0447C25.042 19.034 24.8264 19.0824 24.6349 19.1846C24.4435 19.2868 24.2833 19.439 24.1715 19.625C24.0597 19.8111 24.0004 20.024 24 20.241V39.759C24.0004 39.976 24.0597 40.1889 24.1715 40.375C24.2833 40.561 24.4435 40.7132 24.6349 40.8154C24.8264 40.9176 25.042 40.966 25.2588 40.9553C25.4756 40.9447 25.6854 40.8755 25.866 40.755L40.503 30.999C40.6676 30.8895 40.8026 30.7409 40.8959 30.5667C40.9893 30.3924 41.0382 30.1977 41.0382 30C41.0382 29.8023 40.9893 29.6076 40.8959 29.4333C40.8026 29.2591 40.6676 29.1105 40.503 29.001L25.863 19.245H25.866Z"
          fill="black"/>
</svg>
