<svg width="49" height="30" viewBox="0 0 49 30" fill="none" xmlns="http://www.w3.org/2000/svg">
<path fill-rule="evenodd" clip-rule="evenodd" d="M11.2788 0C10.5994 0 9.96652 0.344851 9.59821 0.915695L1.21055 13.9157C0.784634 14.5758 0.784633 15.4242 1.21055 16.0843L9.59821 29.0843C9.96652 29.6551 10.5994 30 11.2788 30H46.8918C47.9964 30 48.8918 29.1046 48.8918 28V2C48.8918 0.895431 47.9964 0 46.8918 0H11.2788ZM7.7707 17.5C9.10664 17.5 10.1896 16.3807 10.1896 15C10.1896 13.6193 9.10664 12.5 7.7707 12.5C6.43477 12.5 5.35178 13.6193 5.35178 15C5.35178 16.3807 6.43477 17.5 7.7707 17.5Z" fill="#F2F2F2"/>
</svg>
